<?xml version="1.0" encoding="utf-8"?>
<!-- Generator: Adobe Illustrator 21.1.0, SVG Export Plug-In . SVG Version: 6.00 Build 0)  -->
<svg version="1.1" id="图层_1" xmlns="http://www.w3.org/2000/svg" xmlns:xlink="http://www.w3.org/1999/xlink" x="0px" y="0px"
	 viewBox="0 0 40 40" style="enable-background:new 0 0 40 40;" xml:space="preserve">
<style type="text/css">
	.st0{fill:#474747;}
</style>
<path class="st0" d="M33.911,17.785c-0.601,0-1.088-0.487-1.088-1.089c0-2.524-1.003-4.946-2.789-6.731
	c-1.785-1.786-4.207-2.789-6.732-2.789c-0.602,0-1.089-0.487-1.089-1.088s0.487-1.089,1.089-1.089
	c3.103-0.002,6.08,1.229,8.274,3.423c2.195,2.195,3.426,5.172,3.424,8.274C35,17.298,34.513,17.785,33.911,17.785z M27.721,17.616
	c-0.337-0.194-0.544-0.553-0.544-0.942c0-2.127-1.725-3.853-3.853-3.853c-0.288,0-0.565-0.115-0.77-0.319
	c-0.204-0.204-0.318-0.48-0.318-0.769s0.114-0.567,0.318-0.77c0.205-0.204,0.482-0.319,0.77-0.319c3.331,0,6.03,2.699,6.03,6.03
	c0,0.389-0.207,0.748-0.544,0.942C28.473,17.811,28.058,17.811,27.721,17.616z M24.485,24.251c0.835-0.835,1.714-1.402,2.611-1.687
	c0.798-0.257,1.652-0.289,2.467-0.091c1.403,0.335,2.473,1.248,3.11,1.794c0.053,0.046,0.106,0.091,0.159,0.136
	c0.624,0.524,1.193,1.327,1.562,2.203c0.454,1.076,0.585,2.193,0.378,3.229c-0.205,1.029-0.729,1.947-1.556,2.731
	c-0.883,0.836-2.114,1.507-3.66,1.995c-0.945,0.295-1.931,0.444-2.921,0.438c-0.884-0.003-1.765-0.105-2.627-0.301
	c-1.6-0.354-3.299-1.028-5.047-2.001c-2.4-1.336-4.424-2.975-5.632-4.04l-0.833-0.756c0,0-0.08-0.085-0.199-0.202
	c-0.118-0.116-0.201-0.198-0.201-0.198l-0.756-0.836c-1.067-1.206-2.705-3.231-4.039-5.627c-0.973-1.751-1.646-3.447-2.001-5.047
	c-0.443-1.994-0.397-3.861,0.135-5.549c0.49-1.544,1.162-2.776,1.997-3.659c0.783-0.827,1.702-1.351,2.731-1.556
	c1.035-0.207,2.152-0.076,3.229,0.378c0.875,0.369,1.679,0.938,2.203,1.561c0.042,0.049,0.087,0.103,0.135,0.158
	c0.546,0.64,1.462,1.709,1.794,3.112c0.198,0.815,0.166,1.668-0.09,2.468c-0.285,0.897-0.853,1.774-1.688,2.61
	c-0.47,0.469-0.695,1.001-0.69,1.625c0.011,1.299,1.01,2.872,2.072,4.083l0.769,0.799l0.038,0.04l0.042,0.04l0.8,0.77
	c1.21,1.061,2.785,2.059,4.083,2.07C23.485,24.947,24.015,24.721,24.485,24.251z M18.727,25.59
	c-0.817-0.569-1.578-1.213-2.273-1.927l-0.063-0.066l-0.056-0.054c-0.713-0.694-1.357-1.455-1.926-2.272
	c-1.004-1.462-1.519-2.847-1.53-4.115c-0.01-1.22,0.436-2.291,1.327-3.182c2.164-2.163,1.173-3.71-0.13-5.235
	c-0.052-0.06-0.101-0.118-0.146-0.172c-0.545-0.646-1.983-1.477-3.341-1.206c-0.577,0.116-1.108,0.425-1.575,0.918
	c-0.607,0.642-1.112,1.591-1.501,2.82c-0.416,1.317-0.445,2.804-0.087,4.421c0.309,1.394,0.907,2.894,1.777,4.459
	c1.586,2.849,3.645,5.143,4.456,5.997l0.137,0.143l0.032,0.032l0.018,0.018l0.031,0.032l0.144,0.137c0.855,0.811,3.15,2.87,6,4.456
	c1.564,0.871,3.065,1.469,4.459,1.779c1.616,0.358,3.103,0.329,4.421-0.088c1.228-0.39,2.177-0.894,2.817-1.501
	c0.494-0.467,0.802-0.997,0.918-1.575h0.001c0.271-1.358-0.561-2.796-1.206-3.34c-0.054-0.046-0.111-0.095-0.171-0.146
	c-1.525-1.304-3.072-2.294-5.236-0.13c-0.882,0.881-1.938,1.328-3.142,1.328h-0.04C21.574,27.11,20.189,26.595,18.727,25.59z"/>
</svg>
