<?xml version="1.0" encoding="utf-8"?>
<!-- Generator: Adobe Illustrator 23.0.0, SVG Export Plug-In . SVG Version: 6.00 Build 0)  -->
<svg version="1.1" id="图层_1" xmlns="http://www.w3.org/2000/svg" xmlns:xlink="http://www.w3.org/1999/xlink" x="0px" y="0px"
	 viewBox="0 0 30 30" style="enable-background:new 0 0 30 30;" xml:space="preserve">
<style type="text/css">
	.st0{fill-rule:evenodd;clip-rule:evenodd;fill:#C30D23;}
</style>
<path class="st0" d="M19.4,11c0.3,0,0.6,0,0.9,0.1c-0.8-3.5-4.6-6.2-8.9-6.2c-4.9,0-8.9,3.3-8.9,7.5c0,2.4,1.3,4.4,3.5,5.9l-0.9,2.6
	l3.1-1.5c1.1,0.2,2,0.4,3.1,0.4c0.3,0,0.6,0,0.8,0c-0.2-0.6-0.3-1.2-0.3-1.8C11.9,14.1,15.2,11,19.4,11L19.4,11z M14.7,8.6
	c0.7,0,1.1,0.4,1.1,1.1c0,0.7-0.4,1.1-1.1,1.1c-0.7,0-1.3-0.4-1.3-1.1C13.3,9.1,14,8.6,14.7,8.6z M8.5,10.8c-0.7,0-1.3-0.4-1.3-1.1
	c0-0.7,0.7-1.1,1.3-1.1c0.7,0,1.1,0.4,1.1,1.1C9.6,10.4,9.1,10.8,8.5,10.8z M27.5,17.8c0-3.5-3.5-6.4-7.5-6.4
	c-4.2,0-7.5,2.9-7.5,6.4c0,3.5,3.3,6.4,7.5,6.4c0.9,0,1.8-0.2,2.7-0.4l2.4,1.3l-0.7-2.2C26.2,21.6,27.5,19.8,27.5,17.8L27.5,17.8z
	 M17.5,16.8c-0.4,0-0.9-0.4-0.9-0.9c0-0.4,0.4-0.9,0.9-0.9c0.7,0,1.1,0.4,1.1,0.9C18.7,16.3,18.2,16.8,17.5,16.8z M22.4,16.8
	c-0.4,0-0.9-0.4-0.9-0.9c0-0.4,0.4-0.9,0.9-0.9c0.7,0,1.1,0.4,1.1,0.9C23.5,16.3,23.1,16.8,22.4,16.8z"/>
</svg>
