<?xml version="1.0" encoding="utf-8"?>
<!-- Generator: Adobe Illustrator 23.0.0, SVG Export Plug-In . SVG Version: 6.00 Build 0)  -->
<svg version="1.1" id="图层_1" xmlns="http://www.w3.org/2000/svg" xmlns:xlink="http://www.w3.org/1999/xlink" x="0px" y="0px"
	 viewBox="0 0 30 30" style="enable-background:new 0 0 30 30;" xml:space="preserve">
<style type="text/css">
	.st0{fill-rule:evenodd;clip-rule:evenodd;fill:#C30D23;}
</style>
<path class="st0" d="M15,4c-5,0-9,4.1-9,9.1c0,2.3,0.9,4.4,2.3,6c0,0.1,0.1,0.1,0.1,0.2l5.8,6.2c0,0,0.1,0.1,0.1,0.1
	c0.1,0.1,0.2,0.2,0.3,0.2c0.3,0.2,0.7,0.1,1-0.2c0.1-0.1,0.1-0.2,0.2-0.3l5.7-6.1c0.1-0.1,0.1-0.1,0.1-0.2c1.4-1.6,2.3-3.7,2.3-6.1
	C24,8.1,20,4,15,4z M15,16.8c-2.2,0-4.1-1.8-4.1-4.1s1.8-4.1,4.1-4.1c2.2,0,4.1,1.8,4.1,4.1S17.2,16.8,15,16.8z"/>
</svg>
