<?xml version="1.0" encoding="utf-8"?>
<!-- Generator: Adobe Illustrator 23.0.0, SVG Export Plug-In . SVG Version: 6.00 Build 0)  -->
<svg version="1.1" id="图层_1" xmlns="http://www.w3.org/2000/svg" xmlns:xlink="http://www.w3.org/1999/xlink" x="0px" y="0px"
	 viewBox="0 0 30 30" style="enable-background:new 0 0 30 30;" xml:space="preserve">
<style type="text/css">
	.st0{fill-rule:evenodd;clip-rule:evenodd;fill:#C30D23;}
</style>
<path class="st0" d="M22.5,18.5V7.4c0-2.1-1.7-3.9-3.8-3.9h-7.4c-2.1,0-3.8,1.7-3.8,3.9v11.1H22.5z M7.5,20.3v2.4
	c0,2.1,1.7,3.9,3.8,3.9h7.4c2.1,0,3.8-1.7,3.8-3.9v-2.4H7.5z M15,24.8c-0.9,0-1.6-0.7-1.6-1.6c0-0.9,0.7-1.6,1.6-1.6
	c0.9,0,1.6,0.7,1.6,1.6C16.5,24.1,15.9,24.8,15,24.8z"/>
</svg>
