<?xml version="1.0" encoding="utf-8"?>
<!-- Generator: Adobe Illustrator 23.0.0, SVG Export Plug-In . SVG Version: 6.00 Build 0)  -->
<svg version="1.1" id="图层_1" xmlns="http://www.w3.org/2000/svg" xmlns:xlink="http://www.w3.org/1999/xlink" x="0px" y="0px"
	 viewBox="0 0 30 30" style="enable-background:new 0 0 30 30;" xml:space="preserve">
<style type="text/css">
	.st0{fill-rule:evenodd;clip-rule:evenodd;fill:#C30D23;}
</style>
<path class="st0" d="M25,23.9h-1.1V11.5c0-0.8-0.6-1.5-1.4-1.5h-2.8v13.9h-1V6.5C18.7,5.7,18,5,17.3,5H7.5C6.7,5,6.1,5.7,6.1,6.5
	v17.4H5c-0.3,0-0.5,0.2-0.5,0.6S4.7,25,5,25h12.6v0h6.3v0H25c0.3,0,0.5-0.2,0.5-0.6S25.3,23.9,25,23.9z M13.4,9.4h2.1v1.7h-2.1V9.4z
	 M13.4,13.9h2.1v1.7h-2.1V13.9z M13.4,18.3h2.1V20h-2.1V18.3z M9.2,9.4h2.1v1.7H9.2V9.4z M9.2,13.9h2.1v1.7H9.2V13.9z M9.2,18.3h2.1
	V20H9.2V18.3z"/>
</svg>
