<svg 
 xmlns="http://www.w3.org/2000/svg"
 xmlns:xlink="http://www.w3.org/1999/xlink"
 width="20px" height="20px">
<path fill-rule="evenodd"  fill="rgb(113, 113, 113)"
 d="M18.373,19.997 L1.625,19.997 C0.719,19.997 -0.001,19.214 -0.001,18.242 L-0.001,18.052 L3.306,12.755 L4.426,13.484 L1.359,18.404 C1.413,18.539 1.519,18.647 1.625,18.647 L18.373,18.647 C18.479,18.647 18.586,18.539 18.639,18.404 L15.573,13.458 L16.693,12.728 L19.999,18.052 L19.999,18.242 C19.999,19.214 19.279,19.997 18.373,19.997 ZM9.999,15.701 L9.519,15.188 C8.959,14.592 3.999,9.241 3.999,6.079 C3.999,2.728 6.693,-0.002 9.999,-0.002 C13.306,-0.002 15.999,2.728 15.999,6.079 C15.999,9.241 11.039,14.592 10.479,15.188 L9.999,15.701 ZM9.999,1.349 C7.439,1.349 5.333,3.485 5.333,6.079 C5.333,8.079 8.346,11.890 9.999,13.728 C11.652,11.890 14.666,8.079 14.666,6.079 C14.666,3.485 12.559,1.349 9.999,1.349 ZM7.733,6.350 C7.733,5.079 8.746,4.052 9.999,4.052 C11.252,4.052 12.266,5.079 12.266,6.350 C12.266,7.620 11.252,8.647 9.999,8.647 C8.746,8.647 7.733,7.620 7.733,6.350 ZM10.933,6.350 C10.933,5.836 10.506,5.403 9.999,5.403 C9.492,5.403 9.066,5.836 9.066,6.350 C9.066,6.863 9.492,7.295 9.999,7.295 C10.506,7.295 10.933,6.863 10.933,6.350 Z"/>
</svg>