<svg xmlns="http://www.w3.org/2000/svg" xmlns:xlink="http://www.w3.org/1999/xlink" viewBox="0 0 50 50"><defs><style>.cls-1{fill:url(#未命名的渐变_17);}.cls-2{fill:#fff;}</style><linearGradient id="未命名的渐变_17" x1="-5.53" y1="3.91" x2="50.77" y2="42.8" gradientUnits="userSpaceOnUse"><stop offset="0" stop-color="#e55a4d"/><stop offset="1" stop-color="#c30d23"/></linearGradient></defs><title>资源 1</title><g id="图层_2" data-name="图层 2"><g id="Icons"><circle class="cls-1" cx="25" cy="25" r="25"/><g id="Business-Products_Advertising_invitation" data-name="Business-Products / Advertising / invitation"><g id="Group_89" data-name="Group 89"><g id="invitation"><path class="cls-2" d="M33.53,28.48h-5.2a.75.75,0,0,1,0-1.5h5.2a1,1,0,0,0,1-1V14.73a1,1,0,0,0-1-1H14.47a1,1,0,0,0-1,1V26a1,1,0,0,0,1,1H24a.75.75,0,0,1,0,1.5H14.47A2.49,2.49,0,0,1,12,26V14.73a2.49,2.49,0,0,1,2.49-2.48H33.53A2.49,2.49,0,0,1,36,14.73V26A2.49,2.49,0,0,1,33.53,28.48Z"/><path class="cls-2" d="M31.8,17.22H25a.75.75,0,1,1,0-1.5H31.8a.75.75,0,0,1,0,1.5Z"/><path class="cls-2" d="M32.67,39.75h-7.8a.75.75,0,0,1-.75-.75V37a17.31,17.31,0,0,1-1.35-2.16l-.06-.15a7.3,7.3,0,0,1,0-3.77l.54-2.15V23a2.92,2.92,0,1,1,5.83,0v4.76a.75.75,0,1,1-1.5,0V23a1.42,1.42,0,1,0-2.83,0v5.89a1.1,1.1,0,0,1,0,.18l-.57,2.25a5.82,5.82,0,0,0,0,2.93,15.43,15.43,0,0,0,1.32,2.07.78.78,0,0,1,.16.46v1.5h6.29c0-.67,0-1.22,0-1.69a15.37,15.37,0,0,1,.68-5.6.76.76,0,0,1,.91-.55.76.76,0,0,1,.55.91,14,14,0,0,0-.64,5.22c0,.64,0,1.43,0,2.46A.76.76,0,0,1,32.67,39.75Z"/><path class="cls-2" d="M21.13,33.7a2.54,2.54,0,0,1-1.28-.33,1.92,1.92,0,0,1-.93-1.69V27.73a.75.75,0,0,1,1.5,0v3.95a.41.41,0,0,0,.21.4,1,1,0,0,0,.81.07,4.23,4.23,0,0,0,1.44-1.87.73.73,0,0,1,1-.42.74.74,0,0,1,.42,1,5.67,5.67,0,0,1-2,2.58l-.09.06A2.24,2.24,0,0,1,21.13,33.7Z"/><path class="cls-2" d="M18.8,22.85a3.35,3.35,0,1,1,3.35-3.35A3.35,3.35,0,0,1,18.8,22.85Zm0-5.2a1.85,1.85,0,1,0,1.85,1.85A1.85,1.85,0,0,0,18.8,17.65Z"/></g></g></g></g></g></svg>