<?xml version="1.0" encoding="utf-8"?>
<!-- Generator: Adobe Illustrator 23.0.0, SVG Export Plug-In . SVG Version: 6.00 Build 0)  -->
<svg version="1.1" id="图层_1" xmlns="http://www.w3.org/2000/svg" xmlns:xlink="http://www.w3.org/1999/xlink" x="0px" y="0px"
	 viewBox="0 0 30 30" style="enable-background:new 0 0 30 30;" xml:space="preserve">
<style type="text/css">
	.st0{fill-rule:evenodd;clip-rule:evenodd;fill:#C30D23;}
</style>
<path class="st0" d="M15,5C9.5,5,5,9.5,5,15s4.5,10,10,10c5.5,0,10-4.5,10-10S20.5,5,15,5z M21.5,18c-0.2,0.3-0.4,0.5-0.7,0.5
	c-0.1,0-0.2,0-0.3-0.1l-5.9-2.7c-0.3-0.1-0.5-0.4-0.5-0.7V9.5c0-0.4,0.4-0.8,0.8-0.8s0.8,0.4,0.8,0.8v5.1l5.4,2.5
	C21.5,17.2,21.7,17.6,21.5,18z"/>
</svg>
