<?xml version="1.0" encoding="utf-8"?>
<!-- Generator: Adobe Illustrator 23.0.0, SVG Export Plug-In . SVG Version: 6.00 Build 0)  -->
<svg version="1.1" id="图层_1" xmlns="http://www.w3.org/2000/svg" xmlns:xlink="http://www.w3.org/1999/xlink" x="0px" y="0px"
	 viewBox="0 0 30 30" style="enable-background:new 0 0 30 30;" xml:space="preserve">
<style type="text/css">
	.st0{fill-rule:evenodd;clip-rule:evenodd;fill:#C30D23;}
</style>
<path class="st0" d="M22.1,26.6C19.9,27,13.8,27,9.5,26.7c-2.6-0.1-4-0.5-4.5-2.3C5,21,7.8,16,11.1,16l2.6,0.8
	c0.7,0.1,1.5,0.1,2.2,0l2.8-0.8c3.4,0,6.1,5,6.1,8.4C25.1,25.9,24,26.3,22.1,26.6z M14.9,16.2c-3.5,0-6.3-2.9-6.3-6.5
	c0-3.6,2.8-6.5,6.3-6.5c3.5,0,6.3,2.9,6.3,6.5S18.4,16.2,14.9,16.2z"/>
</svg>
