<svg xmlns="http://www.w3.org/2000/svg" viewBox="0 0 38 30.24"><defs><style>.cls-2{fill:#c30d23}</style></defs><g id="图层_2" data-name="图层 2"><g id="图层_1-2" data-name="图层 1"><path d="M28 1l-9 4.12L10 1 1 5.12v24.09l9-4.09 9 4.09 9-4.09 9 4.09V5.12z" fill="#fda0b2"/><path class="cls-2" d="M37 30.24a1 1 0 0 1-.42-.09L28 26.26l-8.55 3.89a1.07 1.07 0 0 1-.86 0L10 26.26l-8.54 3.89a1 1 0 0 1-1-.07 1 1 0 0 1-.46-.87V5.12a1 1 0 0 1 .61-.94l9-4.09a1.07 1.07 0 0 1 .86 0L19 4 27.55.09a1.07 1.07 0 0 1 .86 0l9 4.09a1 1 0 0 1 .61.94v24.09a1 1 0 0 1-.3.73 1.07 1.07 0 0 1-.74.3zm-27-6.15a1.11 1.11 0 0 1 .43.09L19 28.07l8.55-3.89a1.07 1.07 0 0 1 .86 0l7.52 3.42V5.79L28 2.17l-8.57 3.89a1 1 0 0 1-.86 0L10 2.17 2.07 5.79V27.6l7.52-3.42a1 1 0 0 1 .43-.09z"/><path class="cls-2" d="M1 22.64a.69.69 0 0 1-.51-.22.67.67 0 0 1-.18-.52 7.93 7.93 0 0 1 .3-1.49.68.68 0 0 1 .85-.47.69.69 0 0 1 .48.85A8.77 8.77 0 0 0 1.72 22a.68.68 0 0 1-.68.63zm24.87-.34a8.11 8.11 0 0 1-2.56-.37.69.69 0 0 1 .43-1.32 6.59 6.59 0 0 0 2.13.31h.19a.69.69 0 0 1 .5.18.67.67 0 0 1 .23.48.68.68 0 0 1-.18.49.69.69 0 0 1-.48.23zm2.62-.93a.69.69 0 0 1-.43-1.23 7.13 7.13 0 0 0 1.51-1.82.69.69 0 0 1 .95-.23.69.69 0 0 1 .22.95A8.23 8.23 0 0 1 29 21.22a.68.68 0 0 1-.43.15zm-7.16-.77a.7.7 0 0 1-.49-.2 12.82 12.82 0 0 1-1.66-2.2.68.68 0 0 1 .2-.95.69.69 0 0 1 1 .2 11.39 11.39 0 0 0 1.48 2 .68.68 0 0 1 .15.75.7.7 0 0 1-.64.43zm-19-1.7a.69.69 0 0 1-.59-1 10.22 10.22 0 0 1 1.75-2.18.68.68 0 0 1 1 .05.69.69 0 0 1 0 1 8.89 8.89 0 0 0-1.52 1.88.68.68 0 0 1-.59.34zm29.1-1.83a.7.7 0 0 1-.62-1 20.17 20.17 0 0 1 1.37-2.34.69.69 0 0 1 1-.17.7.7 0 0 1 .17 1 19.16 19.16 0 0 0-1.27 2.18.69.69 0 0 1-.61.37zm-13.16-.68a.71.71 0 0 1-.53-.24 5.6 5.6 0 0 0-1.82-1.44.71.71 0 0 1-.39-.58.67.67 0 0 1 .31-.62.68.68 0 0 1 .7 0 7.37 7.37 0 0 1 2.25 1.77.69.69 0 0 1 .1.74.68.68 0 0 1-.62.41zm-12.17-1a.7.7 0 0 1-.32-1.31 11.75 11.75 0 0 1 2.59-1 .69.69 0 0 1 .84.5.68.68 0 0 1-.5.84 10.75 10.75 0 0 0-2.29.86.72.72 0 0 1-.32.08zm7.63-1.29h-.08q-.59-.1-1.21-.1h-1.25a.71.71 0 0 1-.5-.17.66.66 0 0 1-.23-.47.69.69 0 0 1 .64-.74c.44 0 .89-.05 1.34 0a12.43 12.43 0 0 1 1.39.07.69.69 0 0 1-.08 1.38zm21-1a.69.69 0 0 1-.26-1.33 4 4 0 0 1 1.61-.31.69.69 0 0 1 0 1.38A2.77 2.77 0 0 0 35 13a.76.76 0 0 1-.27.05z"/><path class="cls-2" d="M10 25.81a.69.69 0 0 1-.69-.69V1.57a.69.69 0 1 1 1.38 0v23.55a.69.69 0 0 1-.69.69zm9 3.74a.69.69 0 0 1-.69-.69V5.31a.69.69 0 0 1 1.38 0v23.55a.69.69 0 0 1-.69.69zm9-3.74a.69.69 0 0 1-.69-.69V1.57a.69.69 0 0 1 1.38 0v23.55a.69.69 0 0 1-.69.69z"/></g></g></svg>