<?xml version="1.0" encoding="utf-8"?>
<!-- Generator: Adobe Illustrator 21.1.0, SVG Export Plug-In . SVG Version: 6.00 Build 0)  -->
<svg version="1.1" id="图层_1" xmlns="http://www.w3.org/2000/svg" xmlns:xlink="http://www.w3.org/1999/xlink" x="0px" y="0px"
	 viewBox="0 0 40 40" style="enable-background:new 0 0 40 40;" xml:space="preserve">
<style type="text/css">
	.st0{fill:#C30D23;}
</style>
<path class="st0" d="M27.615,5C32.692,5,37,9.468,37,14.893c0,0.319-0.154,1.756-0.308,2.075
	c-1.384,8.139-10.461,14.681-14.308,17.234C21.615,34.681,20.846,35,19.923,35s-1.692-0.319-2.462-0.798
	C13.154,31.49,3.154,23.99,3,15.053v-0.479C3.154,9.309,7.308,5,12.385,5C14.846,5,17.154,6.117,19,7.872
	c0.461,0.639,1.384,0.639,2,0C22.846,5.958,25.154,5,27.615,5L27.615,5z"/>
</svg>
