<?xml version="1.0" encoding="utf-8"?>
<!-- Generator: Adobe Illustrator 23.0.0, SVG Export Plug-In . SVG Version: 6.00 Build 0)  -->
<svg version="1.1" id="图层_1" xmlns="http://www.w3.org/2000/svg" xmlns:xlink="http://www.w3.org/1999/xlink" x="0px" y="0px"
	 viewBox="0 0 30 30" style="enable-background:new 0 0 30 30;" xml:space="preserve">
<style type="text/css">
	.st0{fill-rule:evenodd;clip-rule:evenodd;fill:#C30D23;}
</style>
<path class="st0" d="M21.3,4.6c0.4-0.6,0-1.5-0.7-1.6c-0.1,0-0.1,0-0.2,0H9.6c0,0,0,0,0,0C8.7,3,8.3,3.9,8.7,4.6l1.9,3.2
	c0.1,0.1,0.2,0.3,0.2,0.4c0.1,0.5,0.6,1,1.2,1h6c0.6,0,1.1-0.4,1.2-1 M17.4,10h-4.7c-0.4,0-0.8,0.3-0.9,0.6l-3.2,9.8
	c-0.1,0.3,0,0.7,0.2,0.9l5.6,5.4c0.3,0.3,0.9,0.3,1.2,0.1l5.4-4.9c0.3-0.2,0.4-0.6,0.3-1l-3.1-10.3C18.1,10.2,17.8,10,17.4,10z"/>
</svg>
