<svg xmlns="http://www.w3.org/2000/svg" width="32" height="38" viewBox="0 0 32 38">
  <defs>
    <style>
      .cls-1 {
        fill: #fff;
        fill-rule: evenodd;
      }
    </style>
  </defs>
  <path id="形状_1460" data-name="形状 1460" class="cls-1" d="M551.183,9190.01H556.8a1.542,1.542,0,0,0,0-3h-5.621a1.541,1.541,0,0,0,0,3h0Zm18.809,2.73a3.989,3.989,0,0,0-1.045-2.84A3.924,3.924,0,0,0,566,9189h-2c-0.407-1.15-1.033-2.31-2.2-2.31h-0.29v-1.09a2.512,2.512,0,0,0-2.38-2.6H548.857a2.475,2.475,0,0,0-2.322,2.48v1.21h-0.29c-1.22,0-1.839,1.1-2.245,2.31h-2a3.766,3.766,0,0,0-4,3.74v24.2a3.9,3.9,0,0,0,3.89,4.05H566.1a3.933,3.933,0,0,0,3.89-4.05v-24.2Zm-24.444-3.09a0.718,0.718,0,0,1,.7-0.72L548,9189v-3a2.7,2.7,0,0,1,1-1h10a2.71,2.71,0,0,1,1,1v3l1.8-.07a0.682,0.682,0,0,1,.7.72v1.46a0.768,0.768,0,0,1-.5.89H546c-0.407,0-.452-0.53-0.452-0.89v-1.46h0ZM568,9217c0,0.42.29-.3,0,0-0.29.36-1.536,2-2,2H542a5.05,5.05,0,0,1-2-2v-24a2.137,2.137,0,0,1,2-2l1.516-.14v0.25A2.636,2.636,0,0,0,546,9194h16a2.774,2.774,0,0,0,2.709-2.89v-0.25L566,9191a2.091,2.091,0,0,1,2,2v24Zm-22-19.99a1.985,1.985,0,1,1-2,1.99,1.986,1.986,0,0,1,2-1.99h0Zm4.856,2.99a1,1,0,1,1,0-2H562.99a1,1,0,1,1,0,2H550.859Zm0,0M546,9204.01a1.985,1.985,0,1,1-2,1.99,1.992,1.992,0,0,1,2-1.99h0Zm4.856,2.99a1,1,0,1,1,0-2H562.99a1,1,0,1,1,0,2H550.859Zm0,0M546,9211.01a1.985,1.985,0,1,1-2,1.99,1.992,1.992,0,0,1,2-1.99h0Zm4.856,2.99a1,1,0,1,1,0-2H562.99a1,1,0,1,1,0,2H550.859Zm0,0" transform="translate(-538 -9183)"/>
</svg>
